<?xml version="1.0" standalone="no"?>
<!DOCTYPE svg PUBLIC "-//W3C//DTD SVG 20010904//EN"
 "http://www.w3.org/TR/2001/REC-SVG-20010904/DTD/svg10.dtd">
<svg version="1.0" xmlns="http://www.w3.org/2000/svg"
 width="2844.000000pt" height="416.000000pt" viewBox="0 0 2844.000000 416.000000"
 preserveAspectRatio="xMidYMid meet">

<g transform="translate(0.000000,416.000000) scale(0.100000,-0.100000)"
fill="#000000" stroke="none">
<path d="M23306 3750 c-580 -67 -1048 -343 -1338 -790 -186 -286 -268 -581
-268 -961 1 -326 61 -586 193 -831 175 -327 451 -592 779 -748 510 -243 1211
-238 1713 12 182 91 357 223 472 355 l52 60 -187 174 c-102 96 -214 200 -248
231 l-61 58 -80 -78 c-180 -178 -362 -273 -590 -307 -478 -72 -914 128 -1128
518 -133 242 -169 591 -90 884 130 487 562 786 1095 760 268 -14 507 -119 707
-311 74 -70 85 -77 100 -65 10 8 119 108 243 223 124 115 229 213 234 217 13
11 -157 182 -259 259 -217 164 -474 271 -770 321 -137 23 -443 33 -569 19z"/>
<path d="M1200 2000 l0 -1700 390 0 390 0 0 470 0 470 423 0 c232 0 463 5 512
10 387 43 688 178 901 402 219 230 316 517 301 882 -14 316 -113 558 -312 761
-218 223 -524 355 -914 395 -62 6 -416 10 -897 10 l-794 0 0 -1700z m1695
1032 c214 -59 342 -168 406 -348 30 -84 38 -283 15 -374 -53 -209 -187 -340
-415 -403 -71 -19 -106 -21 -498 -25 l-423 -4 0 592 0 592 418 -4 c391 -4 422
-6 497 -26z"/>
<path d="M12040 2000 l0 -1700 250 0 250 0 2 1028 3 1029 835 -1028 835 -1028
672 0 673 -1 2 1029 3 1030 835 -1027 835 -1027 188 -3 187 -2 0 1700 0 1700
-250 0 -250 0 -2 -1030 -3 -1030 -835 1030 -835 1030 -672 0 -673 0 -2 -1031
-3 -1030 -835 1030 -835 1030 -187 1 -188 0 0 -1700z"/>
<path d="M18680 2000 l0 -1700 1305 0 1305 0 0 315 0 315 -920 0 -920 0 0 395
0 395 785 0 785 0 0 305 0 305 -785 0 -785 0 0 370 0 370 885 0 885 0 0 315 0
315 -1270 0 -1270 0 0 -1700z"/>
<path d="M25020 3380 l0 -320 540 0 540 0 0 -1380 0 -1380 390 0 390 0 0 1380
0 1380 540 0 540 0 0 320 0 320 -1470 0 -1470 0 0 -320z"/>
<path d="M5995 2935 c-242 -38 -459 -144 -594 -292 l-61 -66 0 167 0 166 -360
0 -360 0 0 -1305 0 -1305 375 0 374 0 4 703 c3 683 4 704 25 784 27 103 77
203 131 265 60 67 172 139 271 173 77 26 100 29 258 33 l172 4 0 344 0 344
-77 -1 c-43 -1 -114 -7 -158 -14z"/>
<path d="M7670 2939 c-414 -52 -773 -267 -989 -589 -148 -221 -212 -443 -213
-735 0 -179 19 -305 68 -455 127 -382 438 -686 839 -819 148 -49 270 -70 445
-78 424 -18 807 116 1087 381 197 186 316 401 374 679 29 135 32 405 6 547
-105 568 -551 979 -1158 1065 -111 16 -351 18 -459 4z m384 -629 c127 -32 201
-74 291 -165 92 -91 143 -179 177 -302 32 -117 31 -356 0 -468 -75 -263 -254
-435 -502 -481 -228 -43 -433 19 -596 181 -140 138 -196 291 -197 530 0 155
18 248 68 352 87 184 249 317 436 358 96 20 232 19 323 -5z"/>
<path d="M9760 1665 l0 -305 680 0 680 0 0 305 0 305 -680 0 -680 0 0 -305z"/>
</g>
</svg>
